<?xml version="1.0" encoding="utf-8"?>
<!-- Generator: Adobe Adobe Illustrator 24.2.0, SVG Export Plug-In . SVG Version: 6.00 Build 0)  -->
<svg version="1.1" xmlns="http://www.w3.org/2000/svg" xmlns:xlink="http://www.w3.org/1999/xlink" x="0px" y="0px"
	 viewBox="0 0 500 500" style="enable-background:new 0 0 500 500;" xml:space="preserve">
<style type="text/css">
	.st0{fill:#8075AA;}
	.st1{display:none;}
</style>
<g id="Calque_1">
</g>
<g id="Left">
	<path class="st0" d="M200.43,313.22c0.01-0.01,0.02-0.01,0.03-0.01l21.58,0.08c0,0,26.14,0.84,26.14,24.8
		c0,21.2-0.25,27.21-0.19,27.76c0,0.03-0.02,0.05-0.05,0.05l-22.47,0.2c0,0-24.9,0.73-24.9-24.24
		C200.58,314.94,200.15,313.43,200.43,313.22z"/>
	<path class="st0" d="M248.18,299.84l-48.07-7.61l0.24-156.96c0,0,2.34-38.15,47.87-34.68"/>
	<path class="st0" d="M309.82,227.87c-0.01,0.01-0.02,0.01-0.03,0.01l-19.74-0.06c0,0-23.91-0.63-23.91-18.76
		c0-16.04,0.23-20.58,0.17-20.99c0-0.02,0.02-0.04,0.05-0.04l20.55-0.15c0,0,22.77-0.55,22.77,18.33
		C309.69,226.57,310.09,227.7,309.82,227.87z"/>
	<path class="st0" d="M266.15,237.99l43.97,5.75l-0.22,118.72c0,0-2.14,28.86-43.78,26.23"/>
</g>
<g id="Rigueur" class="st1">
</g>
</svg>
